<svg width="144" height="26" viewBox="0 0 144 26" fill="none" xmlns="http://www.w3.org/2000/svg">
<path d="M6.625 19.9688L9.75 8.09375H13.0469L11.875 14.0469L8.78125 25H6.14062L6.625 19.9688ZM5.39062 8.09375L7.32812 19.875L7.54688 25H4.34375L0.34375 8.09375H5.39062ZM15.8281 19.625L17.7812 8.09375H22.8281L18.8594 25H15.6562L15.8281 19.625ZM13.4219 8.09375L16.5781 19.9375L17.0625 25H14.3906L11.3594 14.0781L10.2344 8.09375H13.4219ZM32.9219 25.3125C31.5469 25.3125 30.3177 25.099 29.2344 24.6719C28.151 24.2344 27.2344 23.6354 26.4844 22.875C25.7448 22.1146 25.1771 21.2396 24.7812 20.25C24.3958 19.2604 24.2031 18.2135 24.2031 17.1094V16.5156C24.2031 15.276 24.375 14.1302 24.7188 13.0781C25.0625 12.0156 25.5729 11.0885 26.25 10.2969C26.9271 9.50521 27.776 8.89062 28.7969 8.45312C29.8177 8.00521 31.0052 7.78125 32.3594 7.78125C33.5573 7.78125 34.6302 7.97396 35.5781 8.35938C36.526 8.74479 37.3281 9.29688 37.9844 10.0156C38.651 10.7344 39.1562 11.6042 39.5 12.625C39.8542 13.6458 40.0312 14.7917 40.0312 16.0625V18.2031H26.2188V14.9062H34.8906V14.5C34.901 13.9375 34.8021 13.4583 34.5938 13.0625C34.3958 12.6667 34.1042 12.3646 33.7188 12.1562C33.3333 11.9479 32.8646 11.8438 32.3125 11.8438C31.7396 11.8438 31.2656 11.9688 30.8906 12.2188C30.526 12.4688 30.2396 12.8125 30.0312 13.25C29.8333 13.6771 29.6927 14.1719 29.6094 14.7344C29.526 15.2969 29.4844 15.8906 29.4844 16.5156V17.1094C29.4844 17.7344 29.5677 18.3021 29.7344 18.8125C29.9115 19.3229 30.1615 19.7604 30.4844 20.125C30.8177 20.4792 31.2135 20.7552 31.6719 20.9531C32.1406 21.151 32.6719 21.25 33.2656 21.25C33.9844 21.25 34.6927 21.1146 35.3906 20.8438C36.0885 20.5729 36.6875 20.125 37.1875 19.5L39.5781 22.3438C39.2344 22.8333 38.7448 23.3073 38.1094 23.7656C37.4844 24.224 36.7344 24.599 35.8594 24.8906C34.9844 25.1719 34.0052 25.3125 32.9219 25.3125ZM42.2188 1H47.4844V20.8438L46.9375 25H42.2188V1ZM57.8594 16.3594V16.6875C57.8594 17.9688 57.7292 19.1354 57.4688 20.1875C57.2083 21.2396 56.8073 22.151 56.2656 22.9219C55.724 23.6823 55.0417 24.2708 54.2188 24.6875C53.3958 25.1042 52.4219 25.3125 51.2969 25.3125C50.276 25.3125 49.401 25.0938 48.6719 24.6562C47.9427 24.2083 47.3333 23.5938 46.8438 22.8125C46.3542 22.0208 45.9583 21.1094 45.6562 20.0781C45.3542 19.0365 45.1146 17.9219 44.9375 16.7344V16.3438C45.1146 15.1667 45.3542 14.0625 45.6562 13.0312C45.9583 11.9896 46.3542 11.0781 46.8438 10.2969C47.3333 9.50521 47.9375 8.89062 48.6562 8.45312C49.3854 8.00521 50.2552 7.78125 51.2656 7.78125C52.401 7.78125 53.3802 7.99479 54.2031 8.42188C55.0365 8.84896 55.724 9.44792 56.2656 10.2188C56.8073 10.9896 57.2083 11.8958 57.4688 12.9375C57.7292 13.9792 57.8594 15.1198 57.8594 16.3594ZM52.5938 16.6875V16.3594C52.5938 15.7448 52.5573 15.1667 52.4844 14.625C52.4115 14.0833 52.2812 13.6042 52.0938 13.1875C51.9062 12.7708 51.6406 12.4427 51.2969 12.2031C50.9531 11.9635 50.5052 11.8438 49.9531 11.8438C49.3906 11.8438 48.9167 11.9375 48.5312 12.125C48.1562 12.3125 47.8542 12.5833 47.625 12.9375C47.4062 13.2812 47.25 13.7083 47.1562 14.2188C47.0625 14.7188 47.0208 15.2865 47.0312 15.9219V17.1562C47.0104 18.0208 47.0885 18.7604 47.2656 19.375C47.4427 19.9896 47.75 20.4583 48.1875 20.7812C48.625 21.1042 49.224 21.2656 49.9844 21.2656C50.5469 21.2656 51 21.1562 51.3438 20.9375C51.6979 20.7188 51.9635 20.4062 52.1406 20C52.3177 19.5938 52.4375 19.1094 52.5 18.5469C52.5625 17.9844 52.5938 17.3646 52.5938 16.6875ZM66.6562 25H61.3594V7.03125C61.3594 5.65625 61.6562 4.5 62.25 3.5625C62.8438 2.61458 63.7031 1.89583 64.8281 1.40625C65.9635 0.916667 67.3229 0.671875 68.9062 0.671875C69.5938 0.671875 70.4531 0.692708 71.4844 0.734375C72.5156 0.765625 73.5521 0.807292 74.5938 0.859375C75.6458 0.901042 76.5365 0.947917 77.2656 1L75.1406 5.23438C74.2135 5.08854 73.3021 4.96875 72.4062 4.875C71.5104 4.78125 70.6146 4.73438 69.7188 4.73438C69.0625 4.73438 68.5052 4.82292 68.0469 5C67.599 5.17708 67.2552 5.4375 67.0156 5.78125C66.776 6.11458 66.6562 6.53125 66.6562 7.03125V25ZM71.9844 25V1H77.2656V25H71.9844ZM69.9375 8.09375V11.75H58.9219V8.09375H69.9375ZM90.3906 20.8906V8.09375H95.6719V25H90.7344L90.3906 20.8906ZM90.8906 17.4531L92.2656 17.4219C92.2656 18.5573 92.1302 19.6094 91.8594 20.5781C91.5885 21.5365 91.1875 22.3698 90.6562 23.0781C90.1354 23.7865 89.4896 24.3385 88.7188 24.7344C87.9583 25.1198 87.0781 25.3125 86.0781 25.3125C85.2448 25.3125 84.4792 25.1979 83.7812 24.9688C83.0938 24.7292 82.5 24.3594 82 23.8594C81.5 23.349 81.1094 22.6979 80.8281 21.9062C80.5573 21.1042 80.4219 20.1458 80.4219 19.0312V8.09375H85.6875V19.0625C85.6875 19.4375 85.7344 19.7604 85.8281 20.0312C85.9219 20.3021 86.0573 20.5312 86.2344 20.7188C86.4115 20.8958 86.6302 21.0312 86.8906 21.125C87.1615 21.2083 87.4688 21.25 87.8125 21.25C88.6042 21.25 89.224 21.0833 89.6719 20.75C90.1198 20.4167 90.4323 19.9635 90.6094 19.3906C90.7969 18.8177 90.8906 18.1719 90.8906 17.4531ZM106.766 25.3125C105.391 25.3125 104.161 25.099 103.078 24.6719C101.995 24.2344 101.078 23.6354 100.328 22.875C99.5885 22.1146 99.0208 21.2396 98.625 20.25C98.2396 19.2604 98.0469 18.2135 98.0469 17.1094V16.5156C98.0469 15.276 98.2188 14.1302 98.5625 13.0781C98.9062 12.0156 99.4167 11.0885 100.094 10.2969C100.771 9.50521 101.62 8.89062 102.641 8.45312C103.661 8.00521 104.849 7.78125 106.203 7.78125C107.401 7.78125 108.474 7.97396 109.422 8.35938C110.37 8.74479 111.172 9.29688 111.828 10.0156C112.495 10.7344 113 11.6042 113.344 12.625C113.698 13.6458 113.875 14.7917 113.875 16.0625V18.2031H100.062V14.9062H108.734V14.5C108.745 13.9375 108.646 13.4583 108.438 13.0625C108.24 12.6667 107.948 12.3646 107.562 12.1562C107.177 11.9479 106.708 11.8438 106.156 11.8438C105.583 11.8438 105.109 11.9688 104.734 12.2188C104.37 12.4688 104.083 12.8125 103.875 13.25C103.677 13.6771 103.536 14.1719 103.453 14.7344C103.37 15.2969 103.328 15.8906 103.328 16.5156V17.1094C103.328 17.7344 103.411 18.3021 103.578 18.8125C103.755 19.3229 104.005 19.7604 104.328 20.125C104.661 20.4792 105.057 20.7552 105.516 20.9531C105.984 21.151 106.516 21.25 107.109 21.25C107.828 21.25 108.536 21.1146 109.234 20.8438C109.932 20.5729 110.531 20.125 111.031 19.5L113.422 22.3438C113.078 22.8333 112.589 23.3073 111.953 23.7656C111.328 24.224 110.578 24.599 109.703 24.8906C108.828 25.1719 107.849 25.3125 106.766 25.3125ZM121.188 11.7031V25H115.922V8.09375H120.859L121.188 11.7031ZM120.562 15.9688L119.328 16C119.328 14.7083 119.484 13.5573 119.797 12.5469C120.109 11.526 120.552 10.6615 121.125 9.95312C121.698 9.24479 122.38 8.70833 123.172 8.34375C123.974 7.96875 124.865 7.78125 125.844 7.78125C126.625 7.78125 127.339 7.89583 127.984 8.125C128.641 8.35417 129.203 8.72396 129.672 9.23438C130.151 9.74479 130.516 10.4219 130.766 11.2656C131.026 12.099 131.156 13.1302 131.156 14.3594V25H125.859V14.3438C125.859 13.6667 125.766 13.151 125.578 12.7969C125.391 12.4323 125.12 12.1823 124.766 12.0469C124.411 11.9115 123.979 11.8438 123.469 11.8438C122.927 11.8438 122.469 11.9479 122.094 12.1562C121.719 12.3646 121.417 12.6562 121.188 13.0312C120.969 13.3958 120.807 13.8281 120.703 14.3281C120.609 14.8281 120.562 15.375 120.562 15.9688ZM142.984 8.09375V11.75H132.797V8.09375H142.984ZM134.938 3.89062H140.203V19.4844C140.203 19.9323 140.255 20.2812 140.359 20.5312C140.464 20.7708 140.641 20.9427 140.891 21.0469C141.151 21.1406 141.495 21.1875 141.922 21.1875C142.224 21.1875 142.474 21.1823 142.672 21.1719C142.87 21.151 143.057 21.125 143.234 21.0938V24.8594C142.786 25.0052 142.318 25.1146 141.828 25.1875C141.339 25.2708 140.818 25.3125 140.266 25.3125C139.141 25.3125 138.177 25.1354 137.375 24.7812C136.583 24.4271 135.979 23.8698 135.562 23.1094C135.146 22.349 134.938 21.3594 134.938 20.1406V3.89062Z" fill="black"/>
</svg>
